# xmcd
#
# Track frame offsets:
#	150
#	17642
#	38870
#	56082
#	73860
#	93122
#	112157
#	134930
#	150495
#	170755
#	188422
#	205540
#
# Disc length: 2989 seconds
#
# Revision: 1
# Processed by: cddbd v1.5.2PL0 Copyright (c) Steve Scherf et al.
# Submitted via: EZCDAudioConverter 7.1.5.1
#
DISCID=a60bab0c
DTITLE=王心凌 - 王心凌 美丽的日子 新歌×精选 爱恋日记 CD2 青春盘
DYEAR=2009
DGENRE=
TTITLE0=第一次爱的人
TTITLE1=抱着你哭
TTITLE2=心心相印
TTITLE3=羽毛
TTITLE4=翅膀
TTITLE5=飞吧
TTITLE6=青春考卷
TTITLE7=爱情城堡
TTITLE8=我会好好的
TTITLE9=You Are My Only Love 
TTITLE10=手表
TTITLE11=打起精神来
EXTD=
EXTT0=
EXTT1=
EXTT2=
EXTT3=
EXTT4=
EXTT5=
EXTT6=
EXTT7=
EXTT8=
EXTT9=
EXTT10=
EXTT11=
PLAYORDER=
